<?xml version="1.0" encoding="utf-8"?>
<!-- Generator: Adobe Illustrator 21.1.0, SVG Export Plug-In . SVG Version: 6.00 Build 0)  -->
<svg version="1.1" id="Layer_1" xmlns="http://www.w3.org/2000/svg" xmlns:xlink="http://www.w3.org/1999/xlink" x="0px" y="0px"
	 viewBox="0 0 735.9 207.7" style="enable-background:new 0 0 735.9 207.7;" xml:space="preserve">
<style type="text/css">
	.st0{fill:#1B1C1F;}
	.st1{fill:#009ADE;}
</style>
<g>
	<g>
		<path class="st0" d="M44.4,158.3c-3.2,0-6.7-0.7-9-1.8l1-4.9c2.6,0.8,5.2,1.3,8.1,1.3c3.2,0,3.9-0.6,3.9-3c0-2.5-0.1-2.8-4.7-3.8
			c-6.8-1.5-7.8-2.8-7.8-8.9c0-5.6,2-7.8,9.7-7.8c2.4,0,5.4,0.3,8.5,0.9l-0.6,5.3c-3.2-0.6-5.3-0.8-7.8-0.8c-2.8,0-3.5,0.5-3.5,2.6
			c0,2.7,0.1,2.7,4.5,3.8c7.6,1.8,8,3.3,8,8.8C54.6,155.6,52.8,158.3,44.4,158.3"/>
		<path class="st0" d="M67.1,158.3c-3.2,0-6.7-0.7-9-1.8l1.1-4.9c2.6,0.8,5.2,1.3,8.1,1.3c3.2,0,3.9-0.6,3.9-3
			c0-2.5-0.1-2.8-4.7-3.8c-6.8-1.5-7.8-2.8-7.8-8.9c0-5.6,2-7.8,9.7-7.8c2.4,0,5.4,0.3,8.5,0.9l-0.6,5.3c-3.2-0.6-5.3-0.8-7.8-0.8
			c-2.8,0-3.4,0.5-3.4,2.6c0,2.7,0.1,2.7,4.5,3.8c7.6,1.8,7.9,3.3,7.9,8.8C77.3,155.6,75.5,158.3,67.1,158.3"/>
		<path class="st0" d="M102.6,149.8c0,4.3-2.9,8.6-10.9,8.6c-7.9,0-10.9-4.3-10.9-8.6V138c0-4.2,2.9-8.6,10.9-8.6
			c7.9,0,10.9,4.3,10.9,8.6V149.8z M96.3,138.6c0-2.2-1.4-3.5-4.5-3.5c-3.2,0-4.6,1.3-4.6,3.5v10.6c0,2.2,1.4,3.5,4.6,3.5
			s4.5-1.3,4.5-3.5V138.6z"/>
		<path class="st0" d="M112.9,148.7c0,2.4,0.8,3.9,3.9,3.9c2,0,4.8-0.2,7.2-0.7l0.9,5.5c-2.8,0.6-5.3,0.9-8.1,0.9
			c-7.1,0-10.2-3.5-10.2-8.6V138c0-5.1,3.2-8.6,10.2-8.6c2.8,0,5.3,0.3,8.1,0.9l-0.9,5.5c-2.4-0.4-5.2-0.7-7.2-0.7
			c-3.1,0-3.9,1.4-3.9,3.9V148.7z"/>
		<rect x="129.2" y="129.9" class="st0" width="6.3" height="28"/>
		<path class="st0" d="M164.2,157.9h-6.6l-1.5-5.5h-9.4l-1.5,5.5h-6.6l8.5-28h8.4L164.2,157.9z M148.2,147.2h6.4l-3.2-11.7
			L148.2,147.2z"/>
		<path class="st0" d="M176.7,166.2c-0.9,0-2.6-0.3-3.5-0.7l0.6-2.3c0.7,0.2,1.8,0.4,2.6,0.4c1.3,0,2-0.2,2-0.9c0-1-0.5-0.9-1.5-0.9
			c-0.4,0-1.1,0-1.8,0.1l-0.8-0.7l0.6-2.9c-6.1-0.4-8.8-3.8-8.8-8.5v-11.7c0-5.1,3.2-8.6,10.2-8.6c2.8,0,5.3,0.3,8.1,0.9l-0.9,5.5
			c-2.4-0.4-5.2-0.7-7.2-0.7c-2.7,0-3.9,1.4-3.9,3.9v9.7c0,2.4,1.2,3.9,3.9,3.9c2,0,4.8-0.2,7.2-0.7l0.9,5.5c-2.4,0.5-4.6,0.8-7,0.8
			l-0.3,1.6c3.1-0.4,4.2,0.5,4.2,2.9C181.4,164.9,180.2,166.2,176.7,166.2"/>
		<path class="st0" d="M211.7,157.9h-6.6l-1.5-5.5h-9.4l-1.5,5.5h-6.6l8.6-28h8.4L211.7,157.9z M198.6,126.9
			c-0.8-0.6-1.2-0.9-1.9-0.9c-1,0-1.6,1.1-2.1,1.9l-2.4-1.9c1-1.9,2.5-3.7,4.4-3.7c1,0,1.7,0.2,2.7,0.9c1,0.6,1.6,1,2.2,1
			c0.9,0,1.3-0.6,1.6-1.7l2.9,1.3c-0.7,2.5-2.3,4.1-4.5,4.1C200.2,127.7,199.5,127.4,198.6,126.9 M195.7,147.2h6.4l-3.2-11.7
			L195.7,147.2z"/>
		<path class="st0" d="M235.3,149.8c0,4.3-2.9,8.6-10.9,8.6c-7.9,0-10.9-4.3-10.9-8.6V138c0-4.2,3-8.6,10.9-8.6s10.9,4.3,10.9,8.6
			V149.8z M229,138.6c0-2.2-1.4-3.5-4.5-3.5c-3.2,0-4.6,1.3-4.6,3.5v10.6c0,2.2,1.4,3.5,4.6,3.5c3.2,0,4.5-1.3,4.5-3.5V138.6z"/>
		<path class="st0" d="M259.4,157.9h-10.9v-28h10.9c6.9,0,9.5,3.5,9.5,7.3v13.5C268.9,154.4,266.3,157.9,259.4,157.9 M262.6,138.9
			c0-2.2-0.8-3.4-3.9-3.4h-3.8v16.8h3.8c3.2,0,3.9-1.2,3.9-3.4V138.9z"/>
		<polygon class="st0" points="273.5,157.9 273.5,129.9 291.2,129.9 291.2,135.5 279.8,135.5 279.8,140.6 290.3,140.6 290.3,146.2 
			279.8,146.2 279.8,152.3 291.2,152.3 291.2,157.9 		"/>
		<path class="st0" d="M312.6,158.3c-3.2,0-6.7-0.7-9-1.8l1.1-4.9c2.6,0.8,5.2,1.3,8.1,1.3c3.2,0,3.9-0.6,3.9-3
			c0-2.5-0.1-2.8-4.7-3.8c-6.8-1.5-7.8-2.8-7.8-8.9c0-5.6,2-7.8,9.7-7.8c2.4,0,5.4,0.3,8.5,0.9l-0.6,5.3c-3.2-0.6-5.3-0.8-7.8-0.8
			c-2.8,0-3.5,0.5-3.5,2.6c0,2.7,0.1,2.7,4.5,3.8c7.6,1.8,8,3.3,8,8.8C322.9,155.6,321.1,158.3,312.6,158.3"/>
		<path class="st0" d="M348.2,149.8c0,4.3-2.9,8.6-10.9,8.6c-7.9,0-10.9-4.3-10.9-8.6V138c0-4.2,2.9-8.6,10.9-8.6
			c7.9,0,10.9,4.3,10.9,8.6V149.8z M341.9,138.6c0-2.2-1.4-3.5-4.6-3.5s-4.5,1.3-4.5,3.5v10.6c0,2.2,1.4,3.5,4.5,3.5
			c3.2,0,4.6-1.3,4.6-3.5V138.6z"/>
		<polygon class="st0" points="352.8,157.9 352.8,129.9 359.1,129.9 359.1,152.3 370.3,152.3 370.3,157.9 		"/>
		<rect x="373.8" y="129.9" class="st0" width="6.3" height="28"/>
		<path class="st0" d="M396.5,157.9h-10.9v-28h10.9c6.9,0,9.5,3.5,9.5,7.3v13.5C406,154.4,403.4,157.9,396.5,157.9 M399.6,138.9
			c0-2.2-0.8-3.4-3.9-3.4h-3.8v16.8h3.8c3.2,0,3.9-1.2,3.9-3.4V138.9z"/>
		<path class="st0" d="M433.4,157.9h-6.6l-1.5-5.5h-9.4l-1.5,5.5h-6.6l8.6-28h8.4L433.4,157.9z M417.4,147.2h6.4l-3.2-11.7
			L417.4,147.2z"/>
		<path class="st0" d="M446.4,149.2h-3.7v8.7h-6.3v-28H448c6.8,0,9.3,2.7,9.3,8v3.5c0,3.5-1.3,5.9-4.1,7l6.8,9.6h-7.5L446.4,149.2z
			 M451,138.4c0-2.1-0.8-2.9-3.4-2.9h-5v8.3h5c2.7,0,3.4-1,3.4-3.1V138.4z"/>
		<rect x="463.4" y="129.9" class="st0" width="6.3" height="28"/>
		<polygon class="st0" points="475.2,157.9 475.2,129.9 492.8,129.9 492.8,135.5 481.5,135.5 481.5,140.6 491.9,140.6 491.9,146.2 
			481.5,146.2 481.5,152.3 492.8,152.3 492.8,157.9 		"/>
		<path class="st0" d="M508.3,157.9h-10.9v-28h10.9c6.9,0,9.5,3.5,9.5,7.3v13.5C517.8,154.4,515.2,157.9,508.3,157.9 M511.5,138.9
			c0-2.2-0.8-3.4-3.9-3.4h-3.8v16.8h3.8c3.2,0,3.9-1.2,3.9-3.4V138.9z"/>
		<path class="st0" d="M545.2,157.9h-6.6l-1.5-5.5h-9.4l-1.5,5.5h-6.6l8.5-28h8.4L545.2,157.9z M529.2,147.2h6.4l-3.2-11.7
			L529.2,147.2z"/>
		<path class="st0" d="M559,157.9h-10.9v-28H559c6.9,0,9.5,3.5,9.5,7.3v13.5C568.5,154.4,565.9,157.9,559,157.9 M562.2,138.9
			c0-2.2-0.8-3.4-3.9-3.4h-3.8v16.8h3.8c3.2,0,3.9-1.2,3.9-3.4V138.9z"/>
		<polygon class="st0" points="573.1,157.9 573.1,129.9 590.8,129.9 590.8,135.5 579.5,135.5 579.5,140.6 589.9,140.6 589.9,146.2 
			579.5,146.2 579.5,152.3 590.8,152.3 590.8,157.9 		"/>
		<path class="st0" d="M612.2,158.3c-3.2,0-6.7-0.7-9.1-1.8l1.1-4.9c2.6,0.8,5.2,1.3,8.1,1.3c3.2,0,3.9-0.6,3.9-3
			c0-2.5-0.1-2.8-4.7-3.8c-6.8-1.5-7.8-2.8-7.8-8.9c0-5.6,2-7.8,9.7-7.8c2.4,0,5.4,0.3,8.5,0.9l-0.6,5.3c-3.2-0.6-5.3-0.8-7.8-0.8
			c-2.8,0-3.5,0.5-3.5,2.6c0,2.7,0.1,2.7,4.5,3.8c7.6,1.8,8,3.3,8,8.8C622.5,155.6,620.7,158.3,612.2,158.3"/>
		<path class="st0" d="M647.8,149.8c0,4.3-2.9,8.6-10.9,8.6c-7.9,0-10.9-4.3-10.9-8.6V138c0-4.2,2.9-8.6,10.9-8.6
			c7.9,0,10.9,4.3,10.9,8.6V149.8z M641.5,138.6c0-2.2-1.4-3.5-4.6-3.5c-3.2,0-4.5,1.3-4.5,3.5v10.6c0,2.2,1.4,3.5,4.5,3.5
			c3.2,0,4.6-1.3,4.6-3.5V138.6z"/>
		<path class="st0" d="M658.1,148.7c0,2.4,0.8,3.9,3.9,3.9c2,0,4.8-0.2,7.3-0.7l0.9,5.5c-2.8,0.6-5.3,0.9-8.1,0.9
			c-7.1,0-10.2-3.5-10.2-8.6V138c0-5.1,3.2-8.6,10.2-8.6c2.8,0,5.3,0.3,8.1,0.9l-0.9,5.5c-2.5-0.4-5.2-0.7-7.3-0.7
			c-3.1,0-3.9,1.4-3.9,3.9V148.7z"/>
		<rect x="674.4" y="129.9" class="st0" width="6.3" height="28"/>
		<path class="st0" d="M709.4,157.9h-6.6l-1.5-5.5h-9.4l-1.5,5.5h-6.6l8.5-28h8.4L709.4,157.9z M693.4,147.2h6.4l-3.2-11.7
			L693.4,147.2z"/>
		<polygon class="st0" points="712.3,157.9 712.3,129.9 718.7,129.9 718.7,152.3 729.8,152.3 729.8,157.9 		"/>
		<path class="st0" d="M209.9,200H199v-28h10.9c6.9,0,9.5,3.5,9.5,7.3v13.5C219.4,196.5,216.8,200,209.9,200 M213,181
			c0-2.2-0.8-3.4-3.9-3.4h-3.8v16.8h3.8c3.2,0,3.9-1.2,3.9-3.4V181z"/>
		<path class="st0" d="M245.1,191.9c0,4.3-3,8.6-10.9,8.6s-10.9-4.3-10.9-8.6v-11.7c0-4.2,3-8.6,10.9-8.6s10.9,4.3,10.9,8.6V191.9z
			 M238.8,180.7c0-2.2-1.4-3.5-4.5-3.5c-3.2,0-4.5,1.3-4.5,3.5v10.6c0,2.2,1.4,3.5,4.5,3.5c3.2,0,4.5-1.3,4.5-3.5V180.7z"/>
		<path class="st0" d="M257.9,200.4c-3.2,0-6.7-0.7-9-1.8l1-4.9c2.6,0.8,5.2,1.4,8.1,1.4c3.2,0,3.9-0.6,3.9-3c0-2.5-0.1-2.8-4.7-3.8
			c-6.8-1.5-7.8-2.8-7.8-8.9c0-5.6,2-7.8,9.7-7.8c2.4,0,5.4,0.2,8.5,0.9l-0.6,5.3c-3.2-0.5-5.3-0.8-7.8-0.8c-2.8,0-3.5,0.5-3.5,2.6
			c0,2.7,0.1,2.7,4.5,3.8c7.6,1.8,8,3.3,8,8.8C268.2,197.7,266.4,200.4,257.9,200.4"/>
		<path class="st0" d="M292.1,191.5h-4.8v8.5H281v-28h11.5c6.8,0,9.3,2.7,9.3,8v3.7C301.8,188.9,299,191.5,292.1,191.5 M295.5,180.5
			c0-2-0.7-2.9-3.4-2.9h-4.8v8.5h4.8c2.8,0,3.4-1,3.4-3.1V180.5z"/>
		<path class="st0" d="M315.4,191.3h-3.7v8.7h-6.3v-28h11.7c6.8,0,9.3,2.7,9.3,8v3.5c0,3.5-1.3,5.9-4.1,7l6.8,9.6h-7.5L315.4,191.3z
			 M320.1,180.5c0-2.1-0.8-2.9-3.4-2.9h-5v8.2h5c2.7,0,3.4-1,3.4-3.1V180.5z"/>
		<path class="st0" d="M352.7,191.9c0,4.3-2.9,8.6-10.9,8.6c-7.9,0-10.9-4.3-10.9-8.6v-11.7c0-4.2,3-8.6,10.9-8.6s10.9,4.3,10.9,8.6
			V191.9z M346.4,180.7c0-2.2-1.4-3.5-4.6-3.5s-4.5,1.3-4.5,3.5v10.6c0,2.2,1.4,3.5,4.5,3.5c3.2,0,4.6-1.3,4.6-3.5V180.7z"/>
		<polygon class="st0" points="357.3,200 357.3,172 375.1,172 375.1,177.6 363.6,177.6 363.6,183.6 374.2,183.6 374.2,189.2 
			363.6,189.2 363.6,200 		"/>
		<polygon class="st0" points="378.9,200 378.9,172 396.6,172 396.6,177.6 385.2,177.6 385.2,182.7 395.7,182.7 395.7,188.3 
			385.2,188.3 385.2,194.4 396.6,194.4 396.6,200 		"/>
		<path class="st0" d="M409.4,200.4c-3.2,0-6.7-0.7-9.1-1.8l1.1-4.9c2.6,0.8,5.2,1.4,8.1,1.4c3.2,0,3.9-0.6,3.9-3
			c0-2.5-0.1-2.8-4.7-3.8c-6.8-1.5-7.8-2.8-7.8-8.9c0-5.6,2-7.8,9.7-7.8c2.4,0,5.4,0.2,8.5,0.9l-0.6,5.3c-3.2-0.5-5.3-0.8-7.8-0.8
			c-2.8,0-3.5,0.5-3.5,2.6c0,2.7,0.1,2.7,4.6,3.8c7.6,1.8,8,3.3,8,8.8C419.7,197.7,417.9,200.4,409.4,200.4"/>
		<path class="st0" d="M432.1,200.4c-3.2,0-6.7-0.7-9-1.8l1.1-4.9c2.6,0.8,5.2,1.4,8.1,1.4c3.2,0,3.9-0.6,3.9-3
			c0-2.5-0.1-2.8-4.7-3.8c-6.8-1.5-7.8-2.8-7.8-8.9c0-5.6,2-7.8,9.7-7.8c2.4,0,5.4,0.2,8.5,0.9l-0.6,5.3c-3.2-0.5-5.3-0.8-7.8-0.8
			c-2.8,0-3.5,0.5-3.5,2.6c0,2.7,0.1,2.7,4.5,3.8c7.6,1.8,8,3.3,8,8.8C442.4,197.7,440.6,200.4,432.1,200.4"/>
		<path class="st0" d="M467.7,191.9c0,4.3-2.9,8.6-10.9,8.6c-7.9,0-10.9-4.3-10.9-8.6v-11.7c0-4.2,2.9-8.6,10.9-8.6
			c7.9,0,10.9,4.3,10.9,8.6V191.9z M461.3,180.7c0-2.2-1.4-3.5-4.5-3.5c-3.2,0-4.6,1.3-4.6,3.5v10.6c0,2.2,1.4,3.5,4.6,3.5
			s4.5-1.3,4.5-3.5V180.7z"/>
		<path class="st0" d="M482.3,191.3h-3.7v8.7h-6.3v-28H484c6.8,0,9.4,2.7,9.4,8v3.5c0,3.5-1.3,5.9-4.1,7l6.8,9.6h-7.5L482.3,191.3z
			 M487,180.5c0-2.1-0.8-2.9-3.4-2.9h-5v8.2h5c2.7,0,3.4-1,3.4-3.1V180.5z"/>
		<polygon class="st0" points="499.1,200 499.1,172 516.8,172 516.8,177.6 505.5,177.6 505.5,182.7 515.9,182.7 515.9,188.3 
			505.5,188.3 505.5,194.4 516.8,194.4 516.8,200 		"/>
		<path class="st0" d="M529.6,200.4c-3.2,0-6.7-0.7-9.1-1.8l1-4.9c2.6,0.8,5.2,1.4,8.1,1.4c3.2,0,3.9-0.6,3.9-3
			c0-2.5-0.1-2.8-4.7-3.8c-6.8-1.5-7.8-2.8-7.8-8.9c0-5.6,2-7.8,9.7-7.8c2.4,0,5.4,0.2,8.5,0.9l-0.6,5.3c-3.2-0.5-5.3-0.8-7.8-0.8
			c-2.8,0-3.5,0.5-3.5,2.6c0,2.7,0.1,2.7,4.6,3.8c7.6,1.8,8,3.3,8,8.8S538.1,200.4,529.6,200.4"/>
		<path class="st1" d="M444.1,7.1c-11.4,0-21.6,5-28.5,13l0,0L411.5,7l0,0h-8.7c-8.5,0-15.8,5.2-19,12.5c0,0-0.1,0.2-0.2,0.6l0,0
			L379.5,7l0,0h-8.7c-8.5,0-15.8,5.2-19,12.5c-0.1,0.2-2.4,6.2-2.4,6.2l-3.5,10.1h0.1c0,0-5.9,17-7.7,22.2c-2,4-4.4,5.1-5.6,5.4
			c-0.3,0.1-0.4,0.1-0.4,0.1h-1V45c0-20.9-16.9-37.9-37.8-37.9s-37.8,17-37.8,37.9c0,21,16.9,38,37.8,38h0.1h8.3h0.7
			c0.9-0.9,7.2-15.7,7.3-19.6l0,0l0,0h-16.3c-10.1,0-18.4-8.2-18.4-18.4s8.2-18.4,18.4-18.4c10.1,0,18.4,8.2,18.4,18.4v16.7V83h12.9
			h2.6h4V69.8c1.5,4.2,3.9,10.1,5.2,12.6c8-1.8,13.7-7.1,17.4-12.5c1.8,5,4.4,11,5.4,12.7l0.1,0.4l0,0h0.1l0,0c0.1,0,2.3,0,4.6,0
			v-0.1c14.6-0.7,23.1-13.1,25.7-20.5c1.9-5.3,9-25.2,10.8-30.5c2.6-5.3,6.2-5.6,6.2-5.6h4.4c-3.1,5.5-4.8,11.8-4.8,18.5v18.5v6.4
			V83v11.1l0,0v8.5c3.9-0.2,18.5-6.5,19.5-7.5v-1V83V61.7v-6.9V45c0-10.2,8.2-18.4,18.4-18.4s18.4,8.2,18.4,18.4
			s-8.2,18.4-18.4,18.4h-16.3l0,0c0.2,3.9,6.4,18.6,7.3,19.6h0.7h8.3h0.1c20.5,0,37.4-17,37.4-38C482,24.1,465,7.1,444.1,7.1
			 M378,35.8c0,0-5.9,17-7.7,22.2c-2.6,5.3-6.2,5.6-6.2,5.6h-1.7l0,0h-5.1c0.1-0.3,0.2-0.6,0.3-0.9c1.9-5.3,9-25.2,10.8-30.5
			c2.6-5.3,6.2-5.6,6.2-5.6h6.5L378,35.8L378,35.8z"/>
		<path class="st0" d="M33.2,157.9h-6.6l-1.5-5.5h-9.4l-1.5,5.5H7.7l8.5-28h8.4L33.2,157.9z M17.2,147.2h6.5l-3.2-11.7L17.2,147.2z"
			/>
	</g>
</g>
</svg>
